PathFileType	4	(X/Y/Z)	RBDS09\RBDS09runT25.trc
DataRate	CameraRate	NumFrames	NumMarkers	Units	OrigDataRate	OrigDataStartFrame	OrigNumFrames
150.000000	150.000000	4	33	mm	150.000000	2812	4500
Frame#	Time	L.ASIS			L.Heel.Bottom			L.Heel.Lateral			L.Heel.Top			L.Iliac.Crest			L.MT1			L.MT5			L.PSIS			L.Shank.Bottom.Lateral			L.Shank.Bottom.Medial			L.Shank.Top.Lateral			L.Shank.Top.Medial			L.Thigh.Bottom.Lateral			L.Thigh.Bottom.Medial			L.Thigh.Top.Lateral			L.Thigh.Top.Medial			R.ASIS			R.ASY			R.Heel.Bottom			R.Heel.Lateral			R.Heel.Top			R.Iliac.Crest			R.MT1			R.MT5			R.PSIS			R.Shank.Bottom.Lateral			R.Shank.Bottom.Medial			R.Shank.Top.Lateral			R.Shank.Top.Medial			R.Thigh.Bottom.Lateral			R.Thigh.Bottom.Medial			R.Thigh.Top.Lateral			R.Thigh.Top.Medial			
		X1	Y1	Z1	X2	Y2	Z2	X3	Y3	Z3	X4	Y4	Z4	X5	Y5	Z5	X6	Y6	Z6	X7	Y7	Z7	X8	Y8	Z8	X9	Y9	Z9	X10	Y10	Z10	X11	Y11	Z11	X12	Y12	Z12	X13	Y13	Z13	X14	Y14	Z14	X15	Y15	Z15	X16	Y16	Z16	X17	Y17	Z17	X18	Y18	Z18	X19	Y19	Z19	X20	Y20	Z20	X21	Y21	Z21	X22	Y22	Z22	X23	Y23	Z23	X24	Y24	Z24	X25	Y25	Z25	X26	Y26	Z26	X27	Y27	Z27	X28	Y28	Z28	X29	Y29	Z29	X30	Y30	Z30	X31	Y31	Z31	X32	Y32	Z32	X33	Y33	Z33	

2813	18.74666666666667	2249.103091694376	1013.394858510504	878.125981577952	2050.289533277642	219.3743869892835	932.0955922339904	2079.871787098116	220.2659226689833	883.6841551387561	2081.69528760709	257.1425087933613	926.7320373270256	2177.70757218503	1075.036392087138	833.3778483126819	2242.664022984879	119.1418250160361	926.3952720518049	2188.362971566943	136.6790491785137	831.3585340779219	2085.927958410837	1036.476144704342	941.5609632921299	2168.421373396257	318.8866201993841	852.7283990346567	2141.214897926362	334.7376511462838	896.5076146679799	2198.663447809177	392.7893403490053	842.6673322277524	2172.657244345155	409.3261038881131	886.7523823282785	2293.923387914969	673.8858832308765	819.5289670561074	2247.434157785967	641.7470720071016	866.2317282844068	2226.182062167433	760.9212591947769	814.7476816440812	2182.648460507588	730.9629982255565	859.980895703818	2235.950391761324	990.4850932047906	1110.324858096548	1942.136962174676	111.6203370609253	1050.063490055563	1774.892496205072	149.2135682073678	988.975711631899	1801.113490450102	145.9179829174871	1042.708079636841	1806.038743413805	184.8503472304749	999.8732266660287	2196.501461149797	1057.93588086024	1140.339726002012	1963.256251124273	56.7560406632691	1002.63093401527	1900.503897163803	56.74677730407385	1095.330116291974	2084.679623904909	1031.672189816081	1016.09455508406	1859.393037340612	257.7431973817887	1062.984865862711	1851.723317837472	269.9522025680981	1013.471899803831	1878.348918085196	339.3385178163567	1077.701634547255	1870.283344460282	347.7508222928358	1025.576727490281	2051.183732701451	625.0297551313349	1124.154284496647	1999.130592730633	640.3315145877644	1074.997890378725	2069.109280413062	733.2491407277746	1134.758580408905	2022.48985246336	747.3043836315519	1086.380073232116	
2814	18.75333333333333	2249.870214127517	1016.812547903056	878.4852198812636	2068.587815014843	203.3815510617535	932.8793948666316	2097.91243020674	205.7126462047545	884.3621515911544	2097.838800893995	242.7541829693139	927.2641697036796	2179.224346152123	1080.552214753784	833.7155876608025	2265.991367639811	113.7582761929695	926.9541140144806	2210.675759111897	128.0495884686732	832.112627052284	2087.193547599985	1041.015908173813	941.6513071575383	2180.095904153087	310.0194319208685	853.4945554948556	2152.907498988016	323.910696835341	897.9576504515791	2206.237388088	385.5537640527176	843.6065580282461	2180.096956739344	400.1578610804478	888.365965686755	2291.215223035353	675.8429222024605	820.6299753016606	2243.747910769268	644.0392516257255	866.5817060935728	2224.663888249835	763.8381059952263	815.6208294773555	2180.464549451315	734.2832511409138	860.4599043042009	2237.044950590043	993.7284712409789	1110.030046002723	1930.477105132502	116.6275437083639	1051.16643488355	1765.054629104225	160.8964661059349	988.4228308722113	1790.686337455174	156.2030765358808	1042.390599965775	1797.586579222766	195.2403090946997	999.9502685468723	2200.571801467791	1062.729769757201	1139.662087246389	1949.959211529817	61.00030121103265	1003.924155349704	1886.298211839863	62.44083484518482	1095.478495889389	2085.989616395292	1036.318805610509	1016.246253186467	1851.112547215154	265.4109441815302	1063.313485228269	1843.97935171507	277.4788835121611	1013.693730674866	1871.104361364574	346.7911194550358	1077.821825853566	1863.467106151317	355.056894184372	1025.642376731788	2047.471537590843	630.4596654452029	1124.357694402326	1995.857859524225	646.3586617323034	1074.86732691483	2066.799902487404	738.5235402937594	1134.78898154939	2020.871055773836	753.0073091352938	1085.815143703377	
2815	18.76	2250.533043929796	1019.742281414138	878.6953597227704	2086.947883626086	187.8218035673186	933.4803578344715	2116.002917342068	191.5372329101182	884.898840812561	2113.946422052304	228.6942156185769	927.6224444630527	2180.52157284571	1085.454919140135	834.0703843506835	2288.779139881527	109.1922367539352	927.7907074412424	2232.823087886881	120.0010802372317	833.0190776524847	2088.277457221186	1045.007813267814	941.8579425499144	2191.532061712467	301.1495230995496	854.2024349479506	2164.413787325432	313.2078486514835	899.2647022013025	2213.504493472947	378.0288485949484	844.3920465698682	2187.278563794267	390.821041763853	889.7379614851321	2287.685110986448	676.8456096699183	821.7769913286547	2239.366788829059	645.604349176183	867.2466121815454	2222.544217134603	765.9245977756721	816.5911622722032	2177.791559558582	737.0017643306467	861.2749626089702	2238.096081561705	996.851787790641	1109.698462710051	1918.689838941897	122.2186073064372	1052.001266510874	1755.277683041859	172.6457184953818	987.6191611880648	1780.261690044286	166.7572942971348	1041.823354582544	1789.090860116151	205.7331903963495	999.6892245497935	2204.032117752105	1067.312810654404	1138.952810392585	1936.612177333142	65.85557017432208	1005.038524051931	1872.115270362425	68.88853871876786	1095.498471538715	2087.116780769865	1040.541925870315	1016.514726105086	1843.119257480003	273.2186337411102	1063.397827842589	1836.539572124236	285.2222232818549	1013.704540582502	1864.551351188383	354.2249510474246	1077.770364054894	1857.35319174136	362.4209509475664	1025.555089538934	2045.147106324839	635.0273159574353	1124.642815785691	1993.755159021247	651.3143380517357	1075.053905263598	2065.408035609546	742.9846029074761	1135.006094350652	2019.865361406329	757.7151797233099	1085.706076919018	
2816	18.76666666666667	2251.09882866758	1022.184702607086	878.7699326512599	2105.227376373439	172.7978789261767	933.9750403735528	2133.987566684959	177.8522177976731	885.3553640119856	2129.888415590976	215.0576161272315	927.8780231141809	2181.583173502186	1089.617770073819	834.4093687030251	2310.862956723506	105.4736992167628	928.8340313717699	2254.599239199285	112.617317942737	834.0422409581764	2089.161759691461	1048.396975762286	942.165908528673	2202.651453217025	292.3609144432406	854.8805463799507	2175.604884408542	302.7216583475956	900.4359715201393	2220.392609626525	370.2947501629199	845.0475326975164	2194.089394452303	381.4090886038584	890.869569649412	2283.4061555267	676.9455584432518	822.9573398524841	2234.428130851202	646.5101330755239	868.2800532647656	2219.867642157917	767.1961128318642	817.6417596730402	2174.717222848418	739.1396251726485	862.4445832345341	2239.074940506482	999.8188245432442	1109.356126728535	1906.780396251705	128.3519481159421	1052.53249423122	1745.494920818341	184.4595157121741	986.6647247025946	1769.826349103519	177.5605280720389	1041.08810463509	1780.488006743277	216.3279080836591	999.1679401593689	2206.770945736008	1071.643388734963	1138.248086768639	1923.164410092846	71.2918395039416	1005.863466818773	1857.98827250549	76.04872189319316	1095.375492649454	2088.04153528826	1044.27290935667	1016.889378828424	1835.387576460352	281.1922580316053	1063.26152697196	1829.371188758571	293.2076374140125	1013.526178139089	1858.667933075909	361.645317711992	1077.55846668778	1851.900864749085	369.8530071131973	1025.32637032535	2044.245363571471	638.6470307821096	1124.972112489827	1992.845381816999	655.136991902551	1075.523214157918	2064.981300985969	746.5428816704505	1135.391215674225	2019.48995727494	761.3754157777515	1086.065980675265	
